<svg xmlns="http://www.w3.org/2000/svg" viewBox="0 0 512 512" role="img"><title>VIP 1 badge</title><defs><linearGradient id="m" x1="90" y1="55" x2="420" y2="455"><stop stop-color="#ffd09a"/><stop offset=".42" stop-color="#9b512b"/><stop offset="1" stop-color="#2b1008"/></linearGradient><linearGradient id="r"><stop stop-color="#ffe1b5"/><stop offset=".5" stop-color="#d77a3b"/><stop offset="1" stop-color="#673018"/></linearGradient><filter id="s" x="-25%" y="-25%" width="150%" height="160%"><feDropShadow dx="0" dy="14" stdDeviation="14" flood-color="#d77a3b" flood-opacity=".35"/></filter></defs><path filter="url(#s)" fill="url(#m)" stroke="url(#r)" stroke-width="16" d="M256 28 438 96v139c0 116-71 202-182 249C145 437 74 351 74 235V96Z"/><path fill="none" stroke="#fff" stroke-opacity=".3" stroke-width="7" d="M256 58 407 114v121c0 95-56 170-151 215C161 405 105 330 105 235V114Z"/><path fill="#120a05" fill-opacity=".38" d="m256 82 119 45v103c0 75-40 135-119 176-79-41-119-101-119-176V127Z"/><text x="256" y="222" fill="#ffe2bc" font-family="Arial,sans-serif" font-size="58" font-weight="900" text-anchor="middle">VIP</text><text x="256" y="350" fill="#fff2df" stroke="#421d0c" stroke-width="5" paint-order="stroke" font-family="Arial,sans-serif" font-size="148" font-weight="900" text-anchor="middle">1</text></svg>
