<svg width="64" height="64" viewBox="0 0 64 64" fill="none" xmlns="http://www.w3.org/2000/svg" role="img" aria-label="Voltix">
  <defs>
    <linearGradient id="metalV" x1="7" y1="7" x2="58" y2="60" gradientUnits="userSpaceOnUse">
      <stop offset="0" stop-color="#FAFBF6"/>
      <stop offset="0.17" stop-color="#747D7E"/>
      <stop offset="0.36" stop-color="#171C1E"/>
      <stop offset="0.58" stop-color="#050607"/>
      <stop offset="0.78" stop-color="#687173"/>
      <stop offset="1" stop-color="#090A0B"/>
    </linearGradient>
    <linearGradient id="goldBolt" x1="22" y1="3" x2="43" y2="62" gradientUnits="userSpaceOnUse">
      <stop offset="0" stop-color="#FFF5B8"/>
      <stop offset="0.24" stop-color="#EBC75E"/>
      <stop offset="0.5" stop-color="#9E6813"/>
      <stop offset="0.78" stop-color="#F3D36D"/>
      <stop offset="1" stop-color="#7D4F0A"/>
    </linearGradient>
    <linearGradient id="ringMetal" x1="4" y1="5" x2="60" y2="60" gradientUnits="userSpaceOnUse">
      <stop offset="0" stop-color="#08090A"/>
      <stop offset="0.22" stop-color="#D5D0B6"/>
      <stop offset="0.44" stop-color="#252B2D"/>
      <stop offset="0.72" stop-color="#D5AF45"/>
      <stop offset="1" stop-color="#101416"/>
    </linearGradient>
    <filter id="shadow" x="-20%" y="-20%" width="140%" height="140%">
      <feDropShadow dx="0" dy="4" stdDeviation="4" flood-color="#000000" flood-opacity="0.45"/>
    </filter>
  </defs>
  <g filter="url(#shadow)">
    <path d="M10.8 50.2A26.8 26.8 0 0 1 47.4 13" stroke="url(#ringMetal)" stroke-width="3" stroke-linecap="round"/>
    <path d="M52 18A26.8 26.8 0 0 1 49.8 51" stroke="url(#ringMetal)" stroke-width="3" stroke-linecap="round"/>
    <path d="M11 13H22.4L32 43.2L42.2 13H53.4L38.3 55H26.9L11 13Z" fill="url(#metalV)"/>
    <path d="M27.1 4L20.3 31.2H29L24.3 60L47.6 24.6H37.1L42.1 4H27.1Z" fill="url(#goldBolt)"/>
  </g>
</svg>
